<?xml version="1.0" standalone="no"?>
<!DOCTYPE svg PUBLIC "-//W3C//DTD SVG 20010904//EN"
 "http://www.w3.org/TR/2001/REC-SVG-20010904/DTD/svg10.dtd">
<svg version="1.0" xmlns="http://www.w3.org/2000/svg"
 width="1024.000000pt" height="1024.000000pt" viewBox="0 0 1024.000000 1024.000000"
 preserveAspectRatio="xMidYMid meet">

<g transform="translate(0.000000,1024.000000) scale(0.100000,-0.100000)"
fill="#000000" stroke="none">
<path d="M7170 10114 c-45 -19 -7013 -6983 -7041 -7036 -25 -49 -25 -129 1
-182 28 -59 2721 -2749 2772 -2771 48 -19 118 -19 166 0 46 20 7013 6980 7043
7037 25 49 25 129 -1 182 -28 59 -2721 2749 -2772 2771 -47 19 -122 19 -168
-1z m1798 -3509 c-359 -358 -1312 -1305 -2118 -2105 -806 -800 -1838 -1826
-2295 -2280 -456 -453 -1001 -995 -1210 -1202 l-380 -378 -1173 1173 -1172
1172 233 233 233 233 285 -283 c157 -156 295 -292 307 -302 l23 -20 149 149
150 150 -305 305 -305 305 235 235 236 234 499 -499 500 -500 150 150 150 150
-497 497 -498 498 233 232 232 233 300 -300 300 -300 152 152 152 152 -294
295 c-162 162 -296 299 -298 304 -1 4 102 111 228 237 l231 229 495 -495 494
-494 152 153 153 152 -493 493 -492 492 240 240 240 240 295 -295 295 -295
150 150 150 150 -295 295 -296 296 237 233 236 234 496 -496 497 -497 150 150
150 150 -495 495 -495 495 233 232 232 233 298 -298 298 -298 152 153 152 153
-297 297 -298 298 230 230 c127 126 234 230 240 230 5 0 229 -219 497 -487
l488 -488 150 150 150 150 -490 490 -490 490 232 232 233 233 1173 -1172 1172
-1173 -652 -650z"/>
</g>
</svg>
